<svg viewBox="0 0 35 35" xmlns="http://www.w3.org/2000/svg"><path style="fill:#fff;stroke-width:.0842815" d="M15.904 34.968c-1.376-.075-2.866-.324-3.455-.578-.093-.04-.296-.12-.451-.179-.602-.227-1.024-.88-1.024-1.583 0-.457.066-.402-.885-.73-.587-.202-2.07-.914-2.494-1.197-.195-.13-.432-.28-.528-.336-.398-.23-1.218-.935-1.531-1.315-1.307-1.589-1.604-2.067-1.864-3.002-.128-.46-.13-.526-.013-.66.071-.08.176-.3.233-.485.143-.462.88-1.842 1.208-2.262.772-.988 1.91-1.94 3.135-2.623 1.408-.786 4.674-1.9 5.568-1.9.225 0 .418.313.283.457-.102.108-.685.301-.764.252-.036-.021-.198.015-.36.083-.163.068-.42.144-.573.168-.425.069-2.04.665-2.233.825-.056.046-.138.062-.181.036-.044-.025-.101.007-.128.077-.026.069-.14.126-.25.126a.452.452 0 0 0-.31.128c-.059.07-.243.187-.41.26a4.61 4.61 0 0 0-.432.21c-.07.043-.22.125-.336.182a1.662 1.662 0 0 0-.34.231c-.073.07-.24.203-.37.295-1.01.714-1.33 1.02-2.132 2.034-.27.341-.801 1.335-.907 1.696-.053.18-.032.19.434.201 2.106.05 4.54-.244 6.472-.785.882-.246 1.09-.324 2.145-.802 1.049-.475 2.537-1.57 3.37-2.478.294-.321.523-.498.643-.498.127 0 .374.209.766.647.802.896 1.664 1.516 3.15 2.267.627.317 1.664.71 1.872.71.078 0 .165.039.194.086.03.047.088.064.131.037.043-.025.163.01.266.083.103.072.325.131.492.131.167 0 .33.026.361.057.031.033.142.067.246.08.337.042.776.127.905.176.116.043.322.067 1.18.132.162.011.344.053.404.09.06.038.647.07 1.306.072 1.602.004 1.661 0 1.661-.127 0-.06-.147-.415-.328-.788-.32-.664-1.265-1.87-1.76-2.25a1.554 1.554 0 0 1-.302-.292c-.112-.183-2.122-1.47-2.917-1.87-.864-.433-2.053-.87-2.741-1.009-.837-.167-1.178-.305-1.205-.485-.05-.319.165-.38.84-.242.89.182 1.295.295 2.008.56.348.128.721.26.83.292.11.033.412.156.674.275.262.12.5.212.53.206.03-.007.12.063.203.154.082.091.216.165.299.165.082 0 .2.048.264.106.114.105.195.16.719.495.15.096.274.209.274.25 0 .043.049.076.108.076.217 0 1.581 1.437 2.041 2.15.349.54.748 1.339.884 1.77.059.185.162.4.23.478.132.152.09.548-.091.87a.926.926 0 0 0-.104.253c-.009.093-.086.295-.258.674-.865 1.916-3.576 3.99-6.488 4.966l-.812.272-.012.557c-.01.412-.053.601-.17.73-.26.287-1.441.835-2.18 1.011-1.253.3-3.24.434-4.99.338zm3.187-.678c.176-.045.385-.074.463-.063.395.055 1.969-.405 2.39-.698.122-.085.267-.156.32-.156.054 0 .077-.032.051-.075-.026-.042.01-.097.08-.124.12-.046.179-.478.078-.579-.026-.025-.269.004-.54.067-2.954.69-6.834.621-9.969-.176-.228-.057-.232-.052-.232.33 0 .358.027.407.35.641.397.288 1.342.607 2.23.755 1.409.234 4.01.276 4.779.078zm.585-1.85c.336-.05.84-.122 1.12-.159.281-.037.844-.169 1.251-.293.407-.124.842-.24.965-.256.207-.029.357-.077.941-.314.193-.079.161-.1-.38-.245-.808-.218-1.248-.35-1.348-.404a.46.46 0 0 0-.168-.05c-.185-.007-1.842-.827-2.072-1.024-.156-.134-.33-.15-.33-.029 0 .046.03.085.069.085.157 0 .584.48.625.702.09.49-.373.984-.922.983-.234 0-.778-.275-.79-.399-.02-.23-.083-.645-.1-.657a1.319 1.319 0 0 0-.297.06l-.278.075.172.242c.58.815-.422 1.731-1.269 1.16-.387-.26-.446-.585-.19-1.042l.196-.35-.264-.092c-.342-.12-.323-.127-.323.131 0 .123-.096.35-.213.503-.506.664-1.553.343-1.576-.483-.007-.228.061-.335.397-.626.288-.25.374-.37.297-.417-.066-.041-.138-.015-.185.071-.043.077-.132.139-.2.139-.067 0-.122.038-.122.084 0 .046-.071.084-.158.084a.394.394 0 0 0-.265.129c-.059.07-.124.11-.146.089-.022-.022-.177.047-.346.152a2.928 2.928 0 0 1-.644.284c-.185.051-.679.208-1.096.35-.417.141-.928.3-1.135.352l-.377.094.281.118c.155.065.363.118.464.118.1 0 .259.054.353.12.4.28 3.262.768 4.685.798.524.011.968.037.986.054.056.056 1.744-.04 2.392-.137zm-2.195-1.342c-.02-.14-.051-.253-.07-.253-.017 0-.032.114-.032.253s.032.253.07.253c.038 0 .053-.114.032-.253zm-6.802-.388c1.29-.42 1.986-.705 3.055-1.252.614-.314 1.117-.604 1.117-.645 0-.04.125-.125.277-.189.153-.064.713-.538 1.244-1.053.53-.516.984-.938 1.008-.939.024 0 .365.3.759.666.393.367.805.75.914.85.11.1.385.296.611.435.227.14.412.287.412.328 0 .041.057.053.127.025.07-.025.126-.007.126.041 0 .05.161.167.358.261.197.095.472.24.611.325.14.084.386.205.548.268.162.064.39.18.506.259.187.127 1.025.409 2.333.785l.437.125.48-.288c.263-.16.502-.29.532-.29.029-.001.242-.135.474-.298.232-.163.516-.359.632-.435.116-.077.317-.237.448-.356l.236-.215-1.627-.182c-1.897-.212-1.814-.198-2.85-.49-2.04-.579-4.057-1.768-5.625-3.32l-.428-.423-.534.521c-.457.446-1.05.936-2.114 1.747-.127.097-.269.152-.316.123-.047-.028-.085-.018-.085.026 0 .043-.218.188-.485.32-.266.133-.504.268-.528.3-.024.033-.138.076-.253.098a2.916 2.916 0 0 0-.462.142c-.139.056-.328.134-.421.173-.38.157-.987.33-1.162.333-.103 0-.452.076-.777.166-.324.09-1.262.227-2.084.306-1.219.117-1.478.164-1.402.255.205.248 1.258.963 2.007 1.363.881.471.862.47 1.9.132zm8.842.084c.17-.065.171-.234.001-.376-.11-.09-.146-.09-.21.011-.099.158-.1.416-.001.416a.722.722 0 0 0 .21-.051zm-3.959-.338c.076-.302-.012-.361-.119-.08-.106.278-.106.3-.011.3.04 0 .1-.099.13-.22zm2.829-.728c.37-.205.674-.482.674-.615 0-.056-.054-.146-.119-.2-.094-.077-.143-.064-.232.062-.278.394-1.178.616-1.808.446a2.678 2.678 0 0 1-.665-.31c-.278-.188-.335-.2-.44-.094-.107.106-.097.146.075.31.345.33.589.456 1.073.559.559.118 1.036.066 1.442-.158zm-.418-.991c.183-.094.333-.219.333-.277 0-.059-.21-.314-.468-.568-.44-.433-.474-.45-.562-.292-.052.093-.245.308-.43.477-.385.354-.374.52.047.704.384.166.69.154 1.08-.044zm-10.75-.256c.996-.098 1.211-.129 1.77-.25.232-.051.63-.127.885-.169a7.858 7.858 0 0 0 1.073-.29c.335-.117.684-.213.775-.213.09 0 .188-.037.216-.082.027-.046.199-.123.38-.171 1.219-.328 2.906-1.387 4.125-2.588.484-.477.909-.868.943-.868.034 0 .36.295.721.654 1.002.995 1.864 1.644 2.73 2.054.228.109.415.226.415.26 0 .032.05.042.113.018.062-.026.16.014.22.084.058.07.234.152.392.182.158.029.287.09.287.134 0 .044.04.055.09.025.048-.029.153 0 .23.07.08.069.266.152.417.183.15.033.274.098.274.146 0 .048.076.067.168.043.093-.025.19-.01.216.033.026.042.151.076.278.076.127 0 .267.033.311.07.224.194 1.099.368 2.914.577l1.231.142.384-.315c.212-.173.444-.406.517-.516l.132-.202-.484.001a2.167 2.167 0 0 1-.863-.17c-.4-.179-.843-.544-.843-.694 0-.048-.115.007-.255.127-.287.241-.735.389-1.182.39-.386 0-1.135-.373-1.361-.68l-.177-.238-.327.167c-.493.252-1.14.232-1.643-.048-.46-.256-.826-.666-.808-.905.011-.141-.022-.153-.257-.093-.43.11-1.173.069-1.46-.082-.38-.199-.781-.625-.838-.888-.108-.509-.157-.56-.511-.534a2.008 2.008 0 0 1-.674-.093c-.288-.1-.388-.1-.67 0a2.034 2.034 0 0 1-.688.09c-.286-.022-.358 0-.358.11 0 .238-.426.913-.715 1.133-.383.292-1.112.438-1.534.306-.292-.091-.335-.084-.47.078-.08.098-.147.224-.147.28 0 .158-.431.531-.788.68-.453.19-1.08.178-1.494-.025l-.342-.169-.365.365c-.597.598-1.314.702-2.098.307l-.475-.24-.363.359c-.399.393-.821.55-1.496.555-.359.003-.404.022-.34.142.143.267.69.772.833.77.079-.003.523-.04.986-.087zm-.737-1.573c.265-.169.44-.384.585-.717l.101-.232-1.344.004c-.74.003-1.344.022-1.344.044 0 .134.28.668.401.766.476.384 1.124.439 1.601.134zm23.132-.121c.209-.149.488-.598.488-.785 0-.025-.55-.045-1.222-.045-.933 0-1.222.025-1.222.107 0 .177.517.749.774.857.336.142.883.08 1.182-.134zm-20.287-.24c.348-.132.631-.493.631-.803 0-.14-.04-.14-.842.001-.07.011-.364.05-.654.083-.591.068-.645.155-.295.481.354.33.72.404 1.16.237zm17.02-.046c.22-.104.468-.412.468-.58 0-.015-.256-.053-.57-.084a9.364 9.364 0 0 1-.973-.145c-.223-.05-.429-.068-.458-.039-.103.103.233.645.504.81.33.201.66.213 1.03.037zm-14.013-.653c.256-.19.433-.552.392-.8-.028-.165-.033-.165-.534-.004a7.195 7.195 0 0 1-.794.208c-.158.026-.38.082-.494.125-.19.072-.197.092-.084.266.308.476 1.017.572 1.514.205zm11.486-.057.24-.25-.23-.087a1.327 1.327 0 0 0-.333-.087.32.32 0 0 1-.184-.076c-.107-.101-1.232-.443-1.285-.39-.023.021.024.212.104.421.201.528.47.72 1.012.72.374 0 .47-.036.676-.25zm-9.001-1.035c.298-.204.432-.45.48-.887.029-.248.014-.271-.147-.221-.262.08-.625.274-.679.361-.066.107-.702.431-.846.431-.236 0-.207.156.061.328.359.23.784.225 1.13-.011zm6.094.054c.308-.123.472-.37.247-.37-.051 0-.428-.207-.838-.461-.689-.426-.75-.448-.799-.293-.126.397.121.864.591 1.117.32.172.386.173.8.007zm-4.128-1.587c0-.067-.038-.145-.084-.174-.046-.029-.084-.142-.084-.253 0-.298-.098-.307-.401-.036-.334.298-.34.377-.042.486.346.126.611.116.611-.026zm1.973-.078.222-.116-.295-.224c-.288-.22-.387-.265-.379-.174.002.025-.074.144-.168.264-.095.12-.173.252-.173.292 0 .115.547.085.793-.042zm-1.175-.711c.063-.374-.082-.851-.218-.715-.137.137-.188.738-.08.941.13.242.232.165.298-.226zm-.963-2.539c-.298-.557-.421-1.743-.25-2.409.048-.185.125-.485.17-.667.084-.331.226-.62.54-1.099.207-.315.475-.333.689-.046.697.937.96 2.378.652 3.57-.151.586-.242.729-.461.729-.239 0-.266-.13-.125-.604.189-.637.162-1.252-.092-2.066-.255-.815-.313-.815-.61-.003-.22.598-.239 1.54-.044 2.112.107.315.114.422.032.52-.145.175-.398.155-.5-.037zm2.066 0c-.193-.214-.165-.302.185-.58.174-.138.486-.53.695-.871.37-.605.378-.636.379-1.336 0-.664-.018-.741-.25-1.054a5.001 5.001 0 0 0-.475-.548c-.375-.35-.918-1.042-.918-1.169 0-.065-.057-.16-.128-.212-.07-.052-.148-.208-.172-.347a6.535 6.535 0 0 0-.197-.716c-.179-.54-.159-1.963.034-2.402.114-.258-1.178 1.318-1.527 1.864-.17.265-.4.713-.511.995-.112.282-.238.588-.28.681-.374.808-.49 2.67-.23 3.666.08.302.296.85.482 1.22.302.6.325.684.21.799-.197.197-.381.032-.716-.639-.496-.994-.632-1.662-.624-3.065.007-1.119.03-1.297.274-2.1.147-.484.325-.943.397-1.023.071-.079.12-.176.109-.217-.03-.107.339-.798.557-1.043.103-.116.418-.533.7-.927.61-.853 1.695-1.938 1.937-1.938a.41.41 0 0 1 .277.129c.09.107.058.28-.178.99-.26.788-.285.948-.284 1.873 0 .925.022 1.063.25 1.626.187.46.407.79.869 1.307.898 1.002 1.068 1.36 1.068 2.252 0 .64-.03.779-.273 1.274-.291.592-1.097 1.542-1.367 1.613-.092.025-.218-.022-.293-.102zM8.53 16.38c-.2-.052-1.714-.293-1.86-.295-.272-.004-1.203-.376-1.29-.516-.186-.293.11-.423 1.97-.865.347-.083.696-.183.775-.223.078-.04.333-.094.567-.12.7-.078 1.072.231 1.157.961.038.325.013.436-.145.636-.285.36-.758.53-1.174.422zm.632-.736c.26-.399-.048-.633-.63-.476-.333.09-.685.134-1.246.157-.417.018-.326.18.1.18.207 0 .398.037.425.081.027.044.096.064.152.043.057-.022.255.018.44.084.473.17.61.158.759-.07zm16.594.668c-.589-.256-.801-.99-.433-1.495.343-.472.525-.495 1.776-.224.61.132 1.3.278 1.532.325.678.136.964.253 1.06.433.118.219-.077.448-.454.534-.457.104-.506.114-1.07.2-.301.047-.889.143-1.306.215-.898.154-.783.153-1.105.01zm1.365-.65c.274-.053.528-.122.563-.153.074-.065-1.238-.51-1.502-.51-.222 0-.375.156-.375.38 0 .39.361.467 1.314.283zm-24.786.116c-.31-.042-.464-.161-.464-.357 0-.273.213-.338 1.157-.358 1-.022 1.234.057 1.186.393-.02.145-.107.187-.488.238-.742.098-1.12.121-1.391.084zm28.908.002c-.31-.044-.463-.163-.463-.358 0-.272.212-.337 1.165-.359.8-.018.957.001 1.085.129.23.229.05.429-.447.497-.775.106-1.087.127-1.34.09zm-20.365-5.647c-.248-.164-.916-.942-.916-1.067 0-.045-.073-.16-.162-.255-.27-.29-.946-1.645-.917-1.842.045-.316.299-.26 1.188.265.474.278.965.553 1.092.61.128.057.232.135.232.174 0 .04.048.071.106.072.057 0 .268.142.467.315.314.275.368.372.41.746.038.33.014.483-.1.658-.299.455-.967.61-1.4.323zm.806-.575a.642.642 0 0 0 .133-.162c0-.153-.158-.33-.411-.461a3.536 3.536 0 0 1-.578-.397c-.412-.36-.781-.636-.781-.583 0 .026.165.267.368.534.202.267.45.646.55.843.198.392.469.477.72.226zm11.248.395c-.26-.26-.327-.39-.327-.633 0-.378.318-.906.645-1.069.376-.188 1.451-.81 2.04-1.182.56-.353.874-.397.925-.129.025.136-.474 1.272-.671 1.526-.037.048-.176.22-.307.382-.132.162-.383.495-.56.74-.572.794-1.188.923-1.745.365zm1.015-.507c.096-.135.175-.268.175-.296 0-.029.096-.16.214-.292.119-.132.337-.407.485-.61l.27-.367-.26.184a2.424 2.424 0 0 0-.369.316c-.06.071-.143.13-.186.13-.042 0-.123.04-.179.09-.056.05-.253.175-.439.277-.357.196-.473.472-.291.691.16.192.39.143.58-.123zM16.95 7.56c-.534-.36-.593-1.061-.194-2.326.108-.342.262-.892.34-1.222.168-.696.303-.846.598-.659.088.056.511 1.32.57 1.702.011.07.042.184.07.253.027.07.086.448.131.84.098.85.002 1.172-.427 1.433-.366.223-.735.216-1.088-.021zm.85-.522c.08-.097.082-.216.007-.53a6.379 6.379 0 0 1-.128-.741 7.701 7.701 0 0 0-.098-.672l-.068-.335-.062.464c-.09.668-.123.838-.245 1.278-.09.324-.09.418 0 .527.14.168.459.172.594.007zM7.553 5.917c-.096-.08-.293-.233-.436-.342-.313-.237-.694-.767-.694-.964 0-.08.09-.164.203-.193.422-.106 1.66 1.15 1.474 1.496-.102.191-.317.192-.547.003zm19.406.094c-.03-.032-.056-.149-.056-.263 0-.148.175-.373.611-.786.618-.585.875-.694 1.073-.455.157.19-.12.595-.761 1.116-.514.417-.738.518-.867.389zM17.22 1.806c-.1-.36-.034-1.546.093-1.701.186-.226.495-.063.54.285.052.39.042.802-.03 1.253-.058.374-.091.424-.292.447-.196.022-.236-.014-.311-.284z"/></svg>